# xmcd
#
# Track frame offsets:
#	150
#	17475
#	33900
#	51825
#	65456
#	88368
#	104793
#	130218
#	141466
#
# Disc length: 2066 seconds
# Revision: 0
# Processed by: cddbd v1.5.2PL0 Copyright (c) Steve Scherf et al.
# Submitted via: dBpowerAMP V12.0
#
DISCID=83081009
DTITLE=Zoot Money - The Book Of Life... I've Read It
DYEAR=2016
DGENRE=Blues
TTITLE0=Mr Money
TTITLE1=Still Alive
TTITLE2=Sunny Skies
TTITLE3=Liberty
TTITLE4=Jack Tar Blues
TTITLE5=It Could Be That Way
TTITLE6=Wouldn't You just Know It
TTITLE7=If Age Brings Wisdom
TTITLE8=Big Time Operator
EXTD=
EXTT0=
EXTT1=
EXTT2=
EXTT3=
EXTT4=
EXTT5=
EXTT6=
EXTT7=
EXTT8=
PLAYORDER=
